HIERARCHY
ROOT root
{
	OFFSET 0.000000 0.000000 0.000000
	CHANNELS 6 Xposition Yposition Zposition Zrotation Yrotation Xrotation
	JOINT lhip
	{
		OFFSET 0.058581 -0.082280 -0.017664
		CHANNELS 3 Zrotation Yrotation Xrotation
		JOINT lknee
		{
			OFFSET 0.043451 -0.386469 0.008037
			CHANNELS 3 Zrotation Yrotation Xrotation
			JOINT lankle
			{
				OFFSET -0.014790 -0.426874 -0.037428
				CHANNELS 3 Zrotation Yrotation Xrotation
				JOINT ltoe
				{
					OFFSET 0.041054 -0.060286 0.122042
					CHANNELS 3 Zrotation Yrotation Xrotation
					End Site
					{
						OFFSET 0.000000 0.000000 0.000000
					}
				}
			}
		}
	}
	JOINT rhip
	{
		OFFSET -0.060310 -0.090513 -0.013543
		CHANNELS 3 Zrotation Yrotation Xrotation
		JOINT rknee
		{
			OFFSET -0.043257 -0.383688 -0.004843
			CHANNELS 3 Zrotation Yrotation Xrotation
			JOINT rankle
			{
				OFFSET 0.019056 -0.420046 -0.034562
				CHANNELS 3 Zrotation Yrotation Xrotation
				JOINT rtoe
				{
					OFFSET -0.034840 -0.062106 0.130323
					CHANNELS 3 Zrotation Yrotation Xrotation
					End Site
					{
						OFFSET 0.000000 0.000000 0.000000
					}
				}
			}
		}
	}
	JOINT lowerback
	{
		OFFSET 0.004439 0.124404 -0.038385
		CHANNELS 3 Zrotation Yrotation Xrotation
		JOINT upperback
		{
			OFFSET 0.004488 0.137956 0.026820
			CHANNELS 3 Zrotation Yrotation Xrotation
			JOINT chest
			{
				OFFSET -0.002265 0.056032 0.002855
				CHANNELS 3 Zrotation Yrotation Xrotation
				JOINT lowerneck
				{
					OFFSET -0.013390 0.211636 -0.033468
					CHANNELS 3 Zrotation Yrotation Xrotation
					JOINT upperneck
					{
						OFFSET 0.010113 0.088937 0.050410
						CHANNELS 3 Zrotation Yrotation Xrotation
						End Site
						{
							OFFSET 0.000000 0.000000 0.000000
						}
					}
				}
				JOINT lclavicle
				{
					OFFSET 0.071702 0.114000 -0.018898
					CHANNELS 3 Zrotation Yrotation Xrotation
					JOINT lshoulder
					{
						OFFSET 0.122921 0.045205 -0.019046
						CHANNELS 3 Zrotation Yrotation Xrotation
						JOINT lelbow
						{
							OFFSET 0.255332 -0.015649 -0.022946
							CHANNELS 3 Zrotation Yrotation Xrotation
							JOINT lwrist
							{
								OFFSET 0.265709 0.012698 -0.007375
								CHANNELS 3 Zrotation Yrotation Xrotation
								End Site
								{
									OFFSET 0.000000 0.000000 0.000000
								}
							}
						}
					}
				}
				JOINT rclavicle
				{
					OFFSET -0.082954 0.112472 -0.023707
					CHANNELS 3 Zrotation Yrotation Xrotation
					JOINT rshoulder
					{
						OFFSET -0.113228 0.046853 -0.008472
						CHANNELS 3 Zrotation Yrotation Xrotation
						JOINT relbow
						{
							OFFSET -0.260127 -0.014369 -0.031269
							CHANNELS 3 Zrotation Yrotation Xrotation
							JOINT rwrist
							{
								OFFSET -0.269108 0.006794 -0.006027
								CHANNELS 3 Zrotation Yrotation Xrotation
								End Site
								{
									OFFSET 0.000000 0.000000 0.000000
								}
							}
						}
					}
				}
			}
		}
	}
}
MOTION
Frames: 10
Frame Time: 0.033333
-0.707627 0.265009 0.988281 84.953570 -0.146442 88.308471 2.407210 3.592122 5.559415 -1.469485 -4.585327 1.196245 4.753427 11.537639 -12.091224 0.000000 -0.000000 0.000000 -1.375419 0.286612 0.178844 -1.441573 8.642435 8.017353 1.710134 -4.590781 -11.280758 0.000000 -0.000000 0.000000 1.087740 0.177543 4.444570 -0.329168 0.336199 1.173719 -2.947172 0.228383 2.282297 3.840178 -7.116847 -8.836855 -0.785120 -14.771441 12.636478 -35.317693 2.732768 -1.434011 -49.564241 -7.563988 6.975446 9.111207 -19.584726 2.198826 -0.825250 -0.902506 2.890050 33.077632 0.413187 3.243746 51.150548 3.623312 16.506160 -13.704449 26.441995 2.531749 4.045782 2.190627 8.074593 
-0.707029 0.264580 0.987976 84.970153 -0.147146 88.538298 2.373171 3.537586 5.381117 -1.478582 -4.867440 1.185753 4.585973 11.880173 -12.113169 0.000000 -0.000000 0.000000 -1.351178 0.513732 0.103818 -1.359489 9.160970 7.941148 2.085873 -5.452135 -11.433626 0.000000 -0.000000 0.000000 1.069073 0.198870 3.883592 -0.316534 0.289317 1.502455 -2.994585 0.182487 2.373282 3.870529 -6.981888 -8.983650 -0.769321 -14.745063 12.514466 -34.959505 2.807519 -1.087151 -49.891532 -7.891195 6.923088 9.275611 -19.632067 2.235164 -0.865342 -0.826707 2.498203 32.806841 1.105839 2.770339 51.513323 2.831456 17.100063 -14.230446 26.576063 2.606289 4.476016 2.111686 7.863480 
-0.706703 0.264500 0.988004 84.983633 -0.159497 88.558099 2.347280 3.539319 5.375645 -1.447901 -4.873646 1.178560 4.559615 11.872842 -12.084401 0.000000 -0.000000 0.000000 -1.344277 0.529937 0.068072 -1.370141 9.153989 8.011438 2.112175 -5.486272 -11.487342 0.000000 -0.000000 0.000000 1.039317 0.184128 3.913755 -0.331588 0.288257 1.476668 -3.000131 0.188154 2.359762 3.884092 -6.929627 -9.018224 -0.758970 -14.714847 12.494915 -34.974248 2.840521 -1.092255 -49.829512 -7.895602 6.896056 9.259184 -19.694872 2.209348 -0.847622 -0.752588 2.553967 32.812493 1.109476 2.702502 51.526451 2.843058 17.107956 -14.158407 26.569324 2.597907 4.518540 2.060603 7.875192 
-0.705872 0.264280 0.987919 85.052025 -0.113326 88.531840 2.421572 3.671872 5.388704 -1.438684 -4.941886 1.294061 4.513671 11.759690 -12.171801 0.000000 -0.000000 0.000000 -1.270356 0.566931 0.201853 -1.388450 9.108708 7.946719 2.062216 -5.523381 -11.472534 0.000000 -0.000000 0.000000 1.070023 0.125515 3.902684 -0.326481 0.285921 1.515965 -3.035400 0.241719 2.307220 3.812448 -6.921030 -8.930093 -0.720409 -14.741897 12.478059 -34.910652 2.787417 -1.086460 -49.849402 -7.870072 6.898554 9.286936 -19.674148 2.189125 -0.788825 -0.634983 2.472313 32.671548 1.163266 2.655570 51.725771 2.830625 17.037461 -14.024126 26.484210 2.425040 4.278442 2.170050 7.274127 
-0.705236 0.264215 0.987784 85.051742 -0.103884 88.538150 2.426839 3.656043 5.434223 -1.432742 -4.968983 1.259289 4.503831 11.823513 -12.188482 0.000000 -0.000000 0.000000 -1.270217 0.526996 0.289368 -1.389857 9.133904 7.871550 2.035395 -5.538124 -11.499499 0.000000 -0.000000 0.000000 1.078194 0.155254 3.816928 -0.318938 0.253474 1.600637 -3.042863 0.258636 2.311144 3.796883 -6.904423 -8.947604 -0.726710 -14.747996 12.487416 -34.925542 2.697151 -1.000077 -49.839768 -7.854861 6.888932 9.355215 -19.681670 2.113428 -0.726960 -0.658186 2.356279 32.739745 1.292180 2.711165 51.647888 2.838349 17.035697 -14.080951 26.521660 2.311168 4.105748 2.117330 7.239605 
-0.704612 0.264052 0.987600 85.046417 -0.105358 88.562537 2.435838 3.626246 5.502588 -1.453980 -4.924390 1.168583 4.435068 11.842574 -12.186982 0.000000 -0.000000 0.000000 -1.275420 0.478789 0.304429 -1.375752 9.163126 7.866856 2.093570 -5.547011 -11.562276 0.000000 -0.000000 0.000000 1.040030 0.165129 3.743811 -0.308413 0.253502 1.595861 -3.011854 0.266711 2.356970 3.771903 -6.830589 -9.071161 -0.771517 -14.757416 12.568217 -34.934236 2.701576 -1.040807 -49.832508 -7.896021 6.879849 9.276505 -19.570452 2.198095 -0.657318 -0.697295 2.334635 32.797063 1.292750 2.691118 51.552396 2.892105 17.044273 -14.039129 26.614149 2.375653 4.096414 2.099560 7.344704 
-0.704101 0.263971 0.987373 85.093954 -0.089671 88.588346 2.452721 3.628859 5.477653 -1.446540 -4.984052 1.225415 4.432743 11.845738 -12.236550 0.000000 -0.000000 0.000000 -1.255453 0.455240 0.332974 -1.375779 9.168106 7.854965 2.038696 -5.559634 -11.616387 0.000000 -0.000000 0.000000 1.066228 0.161300 3.672036 -0.333415 0.200597 1.614422 -3.036660 0.280217 2.373997 3.818447 -6.847961 -9.155351 -0.816448 -14.788324 12.596261 -34.910994 2.691451 -1.040887 -49.839722 -7.896812 6.860835 9.313350 -19.654844 2.190646 -0.633177 -0.687852 2.423386 32.854075 1.296066 2.651894 51.518824 2.913904 17.045871 -14.089795 26.847421 2.392403 4.137460 2.052241 7.542245 
-0.703614 0.263914 0.987359 85.112195 -0.092347 88.595966 2.453594 3.623163 5.506955 -1.443910 -4.968018 1.213598 4.438127 11.831045 -12.248480 0.000000 -0.000000 0.000000 -1.266526 0.421410 0.343039 -1.353388 9.189246 7.885644 2.045908 -5.549901 -11.639423 0.000000 -0.000000 0.000000 1.053819 0.198480 3.691371 -0.336226 0.200171 1.565638 -3.041313 0.275356 2.353447 3.840806 -6.867206 -9.123015 -0.817411 -14.800033 12.602945 -34.920436 2.723476 -1.071848 -49.847926 -7.900459 6.869106 9.279868 -19.632089 2.221386 -0.667963 -0.656684 2.422093 32.827044 1.294307 2.629553 51.575882 2.923822 17.039956 -14.003113 26.758103 2.330928 4.099413 2.040446 7.405325 
-0.703152 0.263847 0.987242 85.180395 -0.093138 88.555448 2.448886 3.574183 5.572998 -1.430248 -4.967393 1.213485 4.423705 11.805575 -12.279345 0.000000 -0.000000 0.000000 -1.281663 0.419695 0.410261 -1.307765 9.203904 7.913674 2.035979 -5.639670 -11.681686 0.000000 -0.000000 0.000000 1.046970 0.237596 3.659508 -0.334864 0.171652 1.645956 -3.045938 0.232535 2.374943 3.862388 -6.853374 -9.112154 -0.772849 -14.750622 12.535096 -34.877271 2.659047 -1.054829 -49.897306 -7.933866 6.888705 9.257394 -19.636401 2.209127 -0.632985 -0.596803 2.430584 32.784486 1.377106 2.614472 51.600748 2.962639 17.060932 -13.961269 26.772352 2.395272 4.127795 2.075662 7.339280 
-0.702853 0.263718 0.987146 85.224192 -0.071601 88.550531 2.483613 3.616046 5.437753 -1.441570 -4.967650 1.537368 4.334649 11.782799 -12.541543 0.000000 -0.000000 0.000000 -1.246437 0.426041 0.452073 -1.314312 9.175540 7.918848 2.031692 -5.671676 -11.770572 0.000000 -0.000000 0.000000 1.055460 0.235167 3.708539 -0.345644 0.178663 1.628717 -3.013016 0.179689 2.436498 3.893647 -6.782598 -9.362873 -0.829531 -14.722270 12.618786 -34.862754 2.623056 -1.068013 -49.952404 -7.957859 6.871161 9.249989 -19.707265 2.239989 -0.473075 -0.683726 2.352876 32.839706 1.409736 2.544123 51.506538 3.080540 17.039296 -13.977028 26.873608 2.374651 3.795756 2.300703 7.538062 
